<?xml version="1.0" standalone="no"?>
<!DOCTYPE svg PUBLIC "-//W3C//DTD SVG 20010904//EN"
 "http://www.w3.org/TR/2001/REC-SVG-20010904/DTD/svg10.dtd">
<svg version="1.0" xmlns="http://www.w3.org/2000/svg"
 width="824.000000pt" height="824.000000pt" viewBox="0 0 824.000000 824.000000"
 preserveAspectRatio="xMidYMid meet">
<metadata>
Created by potrace 1.14, written by Peter Selinger 2001-2017
</metadata>
<g transform="translate(0.000000,824.000000) scale(0.100000,-0.100000)"
fill="#000000" stroke="none">
<path d="M4319 8238 c-4 -17 -2 -98 2 -98 4 0 3 -17 -1 -38 -3 -20 -3 -49 1
-64 4 -16 4 -30 -1 -33 -4 -3 -5 -20 -1 -37 4 -18 6 -42 5 -53 -1 -11 -3 -32
-3 -47 -1 -16 -1 -40 -2 -55 -1 -38 -2 -62 0 -98 0 -16 1 -41 1 -55 0 -14 2
-49 3 -78 1 -28 -1 -52 -4 -52 -4 0 -3 -17 0 -37 4 -21 5 -49 4 -63 -4 -30 -4
-36 -4 -75 1 -16 0 -43 -2 -60 -1 -16 1 -42 4 -56 4 -15 3 -32 -1 -39 -5 -7
-5 -23 0 -34 4 -12 4 -30 0 -41 -4 -11 -4 -32 1 -47 4 -15 4 -30 -1 -33 -4 -3
-4 -20 0 -39 4 -19 4 -40 0 -46 -4 -7 -4 -25 0 -40 4 -15 4 -33 0 -40 -5 -7
-5 -23 0 -34 4 -12 4 -30 0 -41 -4 -11 -4 -32 1 -47 4 -15 4 -30 -1 -33 -4 -3
-5 -20 -1 -37 4 -18 6 -42 5 -53 -1 -11 -3 -32 -3 -47 -1 -16 -1 -40 -2 -55
-1 -38 -2 -62 0 -98 0 -16 1 -41 1 -55 0 -14 2 -49 3 -78 1 -28 -1 -52 -4 -52
-4 0 -3 -17 0 -37 4 -21 5 -49 4 -63 -4 -30 -4 -36 -4 -75 1 -16 0 -43 -2 -60
-1 -16 1 -42 4 -56 4 -15 3 -32 -1 -39 -5 -7 -5 -23 0 -34 4 -12 4 -30 0 -41
-4 -11 -4 -32 1 -47 4 -15 4 -30 -1 -33 -4 -3 -4 -20 0 -39 4 -19 4 -40 0 -46
-4 -7 -4 -25 0 -40 4 -15 4 -33 0 -40 -5 -7 -5 -23 0 -34 4 -12 4 -30 0 -41
-4 -11 -4 -32 1 -47 4 -15 4 -30 -1 -33 -4 -3 -5 -20 -1 -37 3 -18 5 -46 4
-63 -3 -27 -3 -49 -2 -87 0 -7 -1 -38 -1 -68 -1 -30 -1 -59 0 -65 1 -5 3 -21
3 -35 2 -19 13 -30 53 -50 29 -14 56 -26 60 -27 5 -1 92 -38 194 -83 233 -102
246 -108 295 -131 41 -19 60 -19 124 2 139 45 232 135 346 336 24 41 45 71 48
66 86 -142 111 -262 91 -425 -5 -46 -30 -120 -55 -167 -10 -19 -17 -36 -15
-38 5 -5 102 45 163 84 76 48 188 161 242 243 82 123 126 249 146 415 10 87 3
303 -11 348 -11 34 11 15 111 -98 56 -63 99 -129 163 -251 17 -33 59 -137 71
-176 6 -21 16 -54 22 -73 6 -19 12 -48 14 -63 2 -15 4 -27 5 -27 2 0 8 -33 17
-100 4 -33 8 -130 8 -215 0 -174 -7 -243 -35 -370 -6 -25 -12 -54 -14 -65 -9
-44 -59 -191 -72 -212 -8 -13 -12 -23 -9 -23 5 0 -14 -37 -103 -200 -19 -36
-39 -66 -44 -68 -4 -2 -8 -8 -8 -14 0 -5 -6 -15 -12 -23 -7 -7 -24 -28 -38
-46 -48 -63 -177 -199 -246 -259 -29 -24 -171 -132 -212 -159 -63 -43 -213
-121 -232 -121 -6 0 -10 -5 -10 -12 0 -6 -3 -9 -6 -6 -3 3 -31 -4 -62 -17 -77
-31 -179 -58 -277 -73 -56 -8 -233 -8 -310 1 -27 3 -77 9 -110 12 -92 11 -124
14 -202 20 -40 2 -78 6 -85 7 -9 2 -12 -297 -12 -1360 -1 -749 2 -1362 7
-1362 20 0 531 281 547 300 4 5 57 37 139 85 22 13 134 88 141 95 3 3 39 28
80 55 114 77 349 254 445 337 11 9 43 36 70 59 196 164 475 440 635 628 25 30
53 63 64 75 10 11 48 59 85 106 36 47 69 87 73 88 5 2 8 9 8 14 0 6 7 18 15
27 27 28 105 141 105 151 0 6 5 10 10 10 6 0 10 5 10 11 0 6 11 25 24 42 13
18 57 88 97 157 160 271 279 542 355 805 21 71 65 261 70 300 3 28 7 52 9 55
2 3 6 28 9 55 4 28 9 70 12 95 4 25 7 609 8 1298 l1 1253 -63 39 c-35 22 -67
40 -72 40 -4 0 -10 3 -12 8 -1 4 -48 34 -103 67 -55 33 -107 64 -116 70 -51
31 -148 89 -174 103 -16 9 -32 19 -35 22 -3 3 -106 66 -230 140 -124 74 -227
138 -230 141 -3 3 -28 19 -56 35 -29 16 -96 56 -150 89 -55 33 -107 64 -116
70 -9 5 -66 39 -125 75 -59 35 -109 68 -111 72 -2 5 -7 8 -12 8 -5 0 -45 23
-90 50 -45 28 -85 50 -90 50 -5 0 -10 3 -12 8 -2 6 -107 70 -367 227 -28 17
-76 46 -108 65 -32 19 -62 37 -68 39 -5 2 -28 16 -50 30 -22 15 -49 32 -60 38
-89 52 -161 98 -163 105 -2 4 -8 8 -14 8 -13 0 -182 102 -186 113 -2 4 -9 7
-16 7 -8 0 -24 8 -37 18 -13 10 -44 30 -69 43 -25 13 -51 30 -58 37 -13 11
-21 15 -23 10z"/>
<path d="M3820 7509 c-142 -68 -175 -83 -182 -83 -3 -1 -10 -4 -14 -9 -8 -7
-49 -27 -174 -85 -78 -36 -394 -186 -620 -295 -47 -23 -87 -42 -90 -42 -3 -1
-52 -24 -110 -52 -58 -27 -145 -69 -195 -93 -49 -23 -142 -67 -205 -97 -63
-30 -149 -71 -190 -90 -41 -20 -82 -39 -90 -44 -8 -5 -28 -14 -44 -21 -16 -6
-52 -23 -81 -39 -29 -15 -55 -25 -59 -22 -3 4 -6 1 -6 -5 0 -7 -4 -12 -9 -12
-5 0 -71 -30 -147 -66 -77 -36 -173 -82 -214 -101 -41 -19 -124 -59 -185 -88
-60 -29 -154 -74 -208 -99 l-98 -47 4 -1267 c4 -1169 6 -1321 22 -1407 3 -16
10 -59 16 -95 7 -36 22 -108 36 -160 13 -52 26 -104 28 -114 6 -24 25 -86 32
-106 4 -8 7 -18 8 -22 2 -5 3 -9 5 -10 1 -2 3 -10 5 -18 2 -14 41 -117 66
-177 5 -13 13 -33 18 -45 17 -41 161 -332 187 -378 74 -129 240 -385 269 -416
5 -6 17 -22 25 -34 21 -30 161 -211 180 -231 8 -8 35 -40 60 -69 106 -127 337
-363 489 -500 46 -41 89 -80 95 -85 36 -32 205 -172 247 -203 27 -20 49 -40
49 -44 0 -4 6 -8 13 -8 6 0 28 -14 47 -30 64 -55 267 -196 515 -355 104 -67
379 -222 540 -304 l60 -30 5 62 c3 34 3 68 0 75 -4 7 -4 34 0 61 3 26 3 60 -1
74 -4 15 -4 29 1 32 4 3 4 20 0 39 -4 19 -4 40 0 46 4 7 4 26 0 41 -5 16 -5
31 0 34 4 3 4 20 0 39 -4 19 -6 37 -4 39 2 2 4 33 4 68 -1 35 -1 79 -1 97 1
69 0 133 0 160 0 15 0 50 0 77 0 28 0 57 0 65 0 8 0 44 0 80 1 142 1 219 0
258 0 15 0 50 0 77 0 28 0 57 0 65 0 8 0 44 0 80 1 142 1 219 0 258 0 15 0 50
0 77 0 28 0 57 0 65 0 8 0 44 0 80 1 142 1 219 0 258 0 15 0 50 0 77 0 28 0
57 0 65 0 8 0 44 0 80 1 142 1 219 0 258 -1 40 1 207 3 221 4 33 -4 58 -19 59
-43 5 -57 2 -111 -23 -120 -56 -164 -76 -392 -180 -129 -59 -273 -125 -320
-147 -47 -22 -87 -40 -90 -40 -3 0 -23 -10 -45 -21 -22 -12 -42 -22 -45 -22
-10 -3 -57 -24 -145 -65 -49 -24 -90 -41 -90 -39 -1 2 -12 -4 -26 -13 -23 -14
-65 -16 -357 -17 -183 0 -332 1 -332 3 0 7 168 296 221 381 11 17 22 38 25 48
4 9 10 17 15 17 5 0 9 4 9 9 0 5 47 89 105 186 58 98 105 181 105 185 0 5 4
10 8 12 9 4 122 197 122 209 0 5 3 9 8 9 4 0 16 17 27 37 31 58 243 416 255
430 5 7 10 16 10 21 0 4 6 14 13 21 6 6 12 15 12 19 1 7 25 48 56 94 11 15 19
29 19 32 0 3 69 122 139 238 34 56 96 163 100 173 2 5 8 14 13 20 11 12 178
295 178 301 0 2 15 28 34 57 19 29 43 69 54 89 34 61 47 82 55 92 4 6 42 70
84 141 62 106 167 284 230 390 7 11 22 39 35 63 12 23 26 42 31 42 4 0 6 4 2
9 -3 5 -1 12 4 15 6 4 6 18 1 35 -4 16 -6 32 -3 34 2 3 4 49 3 104 0 54 -1
113 -1 131 1 59 1 132 0 160 0 15 0 50 0 77 0 28 0 57 0 65 -2 55 1 217 4 250
2 14 0 37 -4 52 -4 15 -4 30 1 33 4 3 5 20 1 37 -4 18 -6 42 -5 53 3 23 4 63
4 88 0 9 0 40 0 67 0 28 -1 62 -1 78 0 15 0 50 0 77 0 28 0 57 0 65 0 8 0 47
0 85 0 39 0 86 0 105 0 19 0 40 1 45 5 21 0 55 -7 55 -5 0 -46 -19 -93 -41z"/>
<path d="M4626 4408 c-53 -20 -100 -71 -113 -121 -29 -117 48 -230 163 -241
58 -5 163 41 164 72 0 6 5 12 10 12 5 0 9 3 8 8 -1 4 4 21 11 37 20 47 4 133
-31 175 -47 56 -146 83 -212 58z"/>
</g>
</svg>
